<?xml version="1.0" encoding="UTF-8"?>
<svg version="1.1" xmlns="http://www.w3.org/2000/svg" viewBox="0 0 1280 904">
<path d="M0 0 C1.442332 -0.00302792 2.8846624 -0.00692058 4.32699001 -0.01159257 C8.2548307 -0.02180122 12.18257939 -0.01970898 16.11042738 -0.01541197 C20.36176993 -0.01293125 24.61309109 -0.02197626 28.86442566 -0.02944946 C37.18498285 -0.04216751 45.50550773 -0.04399325 53.82607301 -0.0416492 C60.60464226 -0.03986033 67.38320177 -0.04162787 74.16176987 -0.04587364 C75.12960571 -0.04646883 76.09744156 -0.04706402 77.09460577 -0.04767724 C79.06152623 -0.04888915 81.02844669 -0.05010328 82.99536715 -0.05131962 C101.42888238 -0.06218693 119.86237931 -0.06003825 138.29589556 -0.05393478 C155.08118312 -0.0487831 171.86641233 -0.05997609 188.65168835 -0.07903299 C205.94711419 -0.09851583 223.24251259 -0.10664817 240.53794944 -0.10290974 C250.2231862 -0.10101127 259.90837353 -0.10334989 269.59360123 -0.11762428 C277.85243535 -0.12967406 286.11118974 -0.13079487 294.37002523 -0.11883412 C298.56680552 -0.11303497 302.76344106 -0.11158825 306.9602108 -0.12383652 C323.75877754 -0.16939069 340.41302351 0.19621263 357.15667725 1.63943481 C357.87390871 1.70065412 358.59114017 1.76187342 359.33010592 1.82494786 C379.56304786 3.59356551 399.14564181 7.39079476 418.27096558 14.26069641 C420.08661011 14.9123175 420.08661011 14.9123175 421.93893433 15.57710266 C443.38032007 23.59562793 462.58662276 34.52914006 479.61764526 49.8014679 C481.3838089 51.36029247 483.19145655 52.86246695 485.00143433 54.37007141 C487.49408783 56.49750854 489.39155633 58.53104837 491.14596558 61.32319641 C494.74982174 66.31683754 499.28591329 69.32932404 505.31002808 70.73725891 C511.1081308 71.17615912 515.72351876 68.6588794 520.27096558 65.26069641 C522.1197519 63.42412674 523.76350736 61.50606307 525.41549683 59.49116516 C532.66215733 50.77991643 541.20736913 43.9359934 550.27096558 37.26069641 C551.25903198 36.50466125 551.25903198 36.50466125 552.26705933 35.73335266 C566.68725099 24.90956372 585.07568789 17.31813103 602.27096558 12.26069641 C602.94917358 12.05492981 603.62738159 11.84916321 604.32614136 11.63716125 C621.85286602 6.33707972 639.32227751 3.2087956 657.56907654 1.66876221 C658.73384349 1.57020442 658.73384349 1.57020442 659.92214108 1.46965557 C677.77275582 -0.0037688 695.56822816 -0.17789425 713.46963942 -0.14613664 C718.09303731 -0.14129784 722.71639791 -0.15400541 727.33978271 -0.16415405 C736.33495656 -0.1811318 745.33005994 -0.18222818 754.32524561 -0.17694115 C761.63740094 -0.17286537 768.94953576 -0.17438284 776.26169014 -0.17968941 C777.31047174 -0.18043783 778.35925334 -0.18118625 779.4398162 -0.18195735 C781.57146347 -0.18348908 783.70311073 -0.18502742 785.83475799 -0.18657232 C805.70125636 -0.20021607 825.56771504 -0.19491292 845.43421245 -0.18338711 C863.58441999 -0.17341995 881.73452608 -0.18646973 899.88471799 -0.2103213 C918.59328632 -0.23471932 937.30180739 -0.2443211 956.01039129 -0.23766857 C966.4860169 -0.23418349 976.96156418 -0.23636376 987.43717766 -0.2539196 C996.33436831 -0.26864851 1005.23142517 -0.26926571 1014.12861323 -0.25184869 C1018.66107919 -0.24335023 1023.19330615 -0.24116198 1027.72575951 -0.25650024 C1031.88059252 -0.27038695 1036.03498254 -0.26553376 1040.1897902 -0.24626101 C1041.68556954 -0.24251357 1043.18138473 -0.24538645 1044.677132 -0.25587266 C1058.71950084 -0.34725908 1070.61455442 1.78658076 1080.89596558 11.82319641 C1087.79437959 20.89885073 1089.72583983 31.12003599 1088.61373901 42.24360657 C1087.11233197 51.07880958 1081.32956532 58.31805666 1075.08346558 64.38569641 C1067.25464557 69.60490975 1058.95737286 71.38582133 1049.64505577 71.38539505 C1049.00156266 71.38673929 1048.35806955 71.38808352 1047.69507664 71.38946849 C1045.54191233 71.39277387 1043.38881951 71.38899331 1041.23565674 71.38526917 C1039.67475973 71.38625578 1038.11386294 71.38769321 1036.55296671 71.38954234 C1033.16035688 71.39259945 1029.76776665 71.3924952 1026.3751564 71.38998604 C1020.85372654 71.38592291 1015.33231199 71.38869751 1009.81088257 71.39233398 C1002.82986196 71.39642458 995.84884478 71.39866362 988.86782296 71.39874998 C975.12528605 71.39895303 961.38278432 71.41143299 947.64025879 71.42835999 C945.47415524 71.43096581 943.30805167 71.43356462 941.1419481 71.43615651 C937.85872636 71.44009515 934.57550463 71.44404168 931.29228293 71.44801773 C918.91099234 71.46296593 906.52970066 71.47658683 894.14840698 71.48872375 C893.01672984 71.48983732 891.8850527 71.49095088 890.71908231 71.49209818 C872.43163814 71.5096258 854.14421613 71.51254554 835.85676496 71.51087335 C817.04847567 71.50958964 798.24026816 71.5274514 779.43201029 71.56189132 C767.85262711 71.5824363 756.27344065 71.58795857 744.69404729 71.57356301 C736.73432532 71.56503595 728.7747548 71.57501119 720.81506471 71.59887251 C716.23837941 71.61204359 711.66205827 71.61760555 707.08537674 71.60075188 C669.2169726 71.47249834 628.58060393 75.5465444 597.27096558 99.26069641 C596.28612183 99.98386047 595.30127808 100.70702454 594.28659058 101.45210266 C591.25872628 103.69346074 588.25878433 105.96632557 585.27096558 108.26069641 C584.65994995 108.72475891 584.04893433 109.18882141 583.41940308 109.66694641 C573.48197942 117.53185925 565.1340434 129.12098085 559.31393433 140.26460266 C558.37774073 142.05634397 557.33047171 143.78899895 556.27096558 145.51069641 C551.9375902 153.12904989 549.3524341 161.55812444 547.20846558 170.01069641 C543.2949521 185.22643682 537.59055507 193.54401155 524.03268433 201.58882141 C515.46238269 205.79256176 504.21820044 205.74569415 495.06393433 203.45991516 C492.68007653 202.53424924 490.49812151 201.51205989 488.27096558 200.26069641 C487.23971558 199.72444641 486.20846558 199.18819641 485.14596558 198.63569641 C484.52721558 198.18194641 483.90846558 197.72819641 483.27096558 197.26069641 C483.27096558 196.60069641 483.27096558 195.94069641 483.27096558 195.26069641 C482.34284058 194.88944641 482.34284058 194.88944641 481.39596558 194.51069641 C478.92027871 193.05441002 478.31971555 191.88257135 477.27096558 189.26069641 C476.61096558 189.26069641 475.95096558 189.26069641 475.27096558 189.26069641 C471.03812673 181.68391487 468.34502463 174.41639788 466.26315308 166.00288391 C462.92389574 153.40836214 457.44670749 141.84871209 449.72409058 131.38960266 C448.27096558 129.26069641 448.27096558 129.26069641 447.27096558 126.26069641 C446.59034058 125.58007141 445.90971558 124.89944641 445.20846558 124.19819641 C444.24940308 123.23913391 444.24940308 123.23913391 443.27096558 122.26069641 C443.27096558 121.60069641 443.27096558 120.94069641 443.27096558 120.26069641 C442.65994995 119.99128235 442.04893433 119.72186829 441.41940308 119.44429016 C439.27096558 118.26069641 439.27096558 118.26069641 436.89596558 115.32319641 C429.35789262 106.18209022 418.36556796 99.21816667 408.27096558 93.26069641 C407.43694214 92.75022766 406.6029187 92.23975891 405.74362183 91.71382141 C398.440205 87.45257971 390.73904626 84.71199039 382.73881328 82.08408129 C381.03761595 81.51648542 379.34182447 80.93251377 377.65082085 80.33523309 C355.29150549 72.55874111 332.40949021 71.50788376 308.98899627 71.60707307 C304.93870022 71.6186107 300.88850146 71.60081661 296.83822632 71.58717346 C288.94981896 71.56517847 281.06165214 71.56963207 273.17323615 71.58423667 C266.75905492 71.59561266 260.34494026 71.59702413 253.9307518 71.59161758 C253.01161698 71.59085142 252.09248217 71.59008525 251.14549478 71.58929587 C249.27741996 71.587697 247.40934515 71.58607593 245.54127036 71.58443291 C228.11404687 71.57024805 210.68695591 71.58645908 193.25975417 71.61343475 C178.33617931 71.63581949 163.41279875 71.63184154 148.48922729 71.60884094 C131.09493314 71.58204441 113.70075405 71.57156579 96.30644214 71.58690226 C94.45021432 71.58849481 92.59398649 71.59006666 90.73775864 71.59161758 C89.82477543 71.59238896 88.91179223 71.59316034 87.97114287 71.59395509 C81.56433264 71.59825663 75.15759608 71.59102018 68.75079727 71.57921982 C60.94473996 71.56515563 53.13893384 71.56907897 45.33290507 71.59562354 C41.35726242 71.60870117 37.38203768 71.61401788 33.40639877 71.59737778 C29.75869241 71.58234133 26.1117865 71.59088742 22.46415149 71.61726554 C20.53922817 71.62538514 18.61424807 71.60929745 16.68938553 71.59197938 C4.48358515 71.72753298 -5.95508406 75.25378239 -15.64309692 82.70991516 C-17.72903442 84.26069641 -17.72903442 84.26069641 -19.87747192 85.21772766 C-22.25106243 86.55475016 -22.6329541 87.80010794 -23.72903442 90.26069641 C-24.82037839 91.72865026 -25.92590165 93.18611591 -27.04153442 94.63569641 C-36.1377185 107.78012516 -36.4617699 120.48995146 -36.39187622 135.883255 C-36.40030387 138.03668093 -36.41083536 140.19009948 -36.42329407 142.34350586 C-36.45020927 148.15568158 -36.44567626 153.96742568 -36.43359351 159.77963591 C-36.42643091 164.64761641 -36.4349828 169.51551867 -36.44349891 174.38349307 C-36.46340988 185.87551098 -36.45792903 197.36732067 -36.43582153 208.85932922 C-36.41346625 220.68035711 -36.43105608 232.50083862 -36.46887082 244.32181489 C-36.50018848 254.50404605 -36.50799531 264.68610881 -36.49691707 274.8683821 C-36.49045633 280.93524876 -36.492306 287.0018005 -36.51624107 293.06863022 C-36.5376172 298.77681173 -36.52935406 304.48422765 -36.49914742 310.19236183 C-36.49286265 312.27552195 -36.49657643 314.35874257 -36.51155853 316.44185829 C-36.62081493 332.98606515 -34.6775338 347.01621383 -23.14309692 359.86225891 C-10.52528602 372.39840114 2.71275434 377.42837069 20.4288162 377.52638376 C21.85034826 377.51938894 21.85034826 377.51938894 23.30059814 377.51225281 C24.34227917 377.51522295 25.3839602 377.51819309 26.45720732 377.52125323 C29.91129774 377.528828 33.36521481 377.52242615 36.81930542 377.5160675 C39.31064468 377.51882045 41.80198305 377.5225022 44.2933197 377.52703857 C49.64115137 377.53512518 54.98893918 377.537489 60.33677292 377.5350914 C68.08389067 377.53197911 75.83093609 377.54368374 83.57803555 377.5596412 C96.17033387 377.58555025 108.76263224 377.60559611 121.35494995 377.61909485 C122.10709835 377.61990522 122.85924676 377.62071559 123.63418753 377.62155052 C134.30573805 377.63276991 144.97728334 377.63805345 155.64883895 377.64093764 C156.77615198 377.64124362 156.77615198 377.64124362 157.92623901 377.64155579 C159.05216233 377.64185569 159.05216233 377.64185569 160.20083158 377.64216165 C172.74671619 377.64590294 185.29252199 377.66504293 197.8383671 377.69665015 C205.55954494 377.71549144 213.28051997 377.72157178 221.00171436 377.71083297 C226.92607614 377.70372948 232.85027842 377.71736931 238.77461052 377.738451 C241.19402108 377.74375335 243.61345787 377.74230995 246.03285789 377.7334156 C277.52665105 377.62702266 277.52665105 377.62702266 288.01315308 387.67475891 C289.27096558 389.26069641 289.27096558 389.26069641 289.27096558 391.26069641 C290.26096558 391.59069641 291.25096558 391.92069641 292.27096558 392.26069641 C298.48299646 401.32935464 300.2123681 411.54384136 298.27096558 422.26069641 C294.9476788 432.00687397 288.97116181 440.43212336 279.96625519 445.57763577 C268.45453214 450.85329089 256.45257545 449.93676744 244.04244995 449.85664368 C241.49022671 449.85854968 238.93800431 449.86270966 236.38578796 449.86894226 C230.90962979 449.87770643 225.43381215 449.87162424 219.95768738 449.85228157 C212.02625934 449.82464697 204.09507931 449.82866695 196.16362375 449.84086739 C183.27343418 449.86021826 170.38332686 449.86035007 157.49313354 449.84541321 C156.33845019 449.84408401 156.33845019 449.84408401 155.16043991 449.84272795 C152.04166637 449.8390942 148.92289294 449.83537683 145.80411962 449.83156139 C137.21901393 449.82109743 128.6339072 449.81285201 120.04879761 449.80635071 C118.89553731 449.80546836 118.89553731 449.80546836 117.71897882 449.80456818 C104.87363433 449.79527067 92.02833881 449.80179178 79.18300295 449.81866115 C71.27669509 449.82821819 63.37065196 449.82318484 55.46437418 449.79889344 C49.40097385 449.78120157 43.33775392 449.78368419 37.27432823 449.79333115 C34.79643099 449.79386451 32.31852097 449.78757422 29.840662 449.77379036 C12.64451592 449.68280782 -0.30823501 450.64683014 -14.91653442 460.38569641 C-17.72903442 462.26069641 -17.72903442 462.26069641 -19.97903442 463.26069641 C-22.26440064 464.56661996 -22.56421656 465.91447965 -23.72903442 468.26069641 C-24.82037839 469.72865026 -25.92590165 471.18611591 -27.04153442 472.63569641 C-36.15917301 485.81327525 -36.46156125 498.55939804 -36.39187622 513.99092102 C-36.40030369 516.15582151 -36.4108351 518.32071466 -36.42329407 520.4855957 C-36.45020966 526.32869432 -36.44567643 532.17136362 -36.43359351 538.01449656 C-36.42643178 542.90742448 -36.4349821 547.80027452 -36.44349891 552.69319636 C-36.46340954 564.2427054 -36.45792881 575.79200724 -36.43582153 587.34150696 C-36.41346027 599.22503773 -36.43106343 611.10802515 -36.46887082 622.99150461 C-36.50017711 633.22552417 -36.50799889 643.45937618 -36.49691707 653.69343764 C-36.49045336 659.79212987 -36.49232061 665.89050882 -36.51624107 671.98916435 C-36.53759978 677.72606877 -36.52937634 683.4622109 -36.49914742 689.19906807 C-36.49285698 691.29393614 -36.49659047 693.38886432 -36.51155853 695.48368835 C-36.59272753 707.85421066 -35.9156276 718.26590992 -29.72903442 729.26069641 C-28.73236901 730.26401991 -27.73338957 731.26507061 -26.72903442 732.26069641 C-26.72903442 733.25069641 -26.72903442 734.24069641 -26.72903442 735.26069641 C-26.06903442 735.26069641 -25.40903442 735.26069641 -24.72903442 735.26069641 C-23.24856567 736.83491516 -23.24856567 736.83491516 -21.54153442 738.94819641 C-12.59924289 749.37780953 -1.13802022 753.58199485 12.27096558 755.26069641 C16.74226111 755.52101753 21.19847973 755.53143448 25.67645264 755.5146637 C26.97383649 755.51778368 28.27122034 755.52090366 29.60791886 755.52411819 C33.17547115 755.53239987 36.74291524 755.52837128 40.31046772 755.52214575 C44.17166151 755.51759441 48.03283753 755.52461854 51.89402771 755.53010559 C59.447686 755.53897529 67.00130442 755.53708767 74.55496423 755.53128031 C80.70294786 755.52675092 86.85092036 755.52615644 92.99890518 755.52832794 C94.31494886 755.52878764 94.31494886 755.52878764 95.65757928 755.52925663 C97.44043779 755.52989614 99.22329629 755.53054456 101.00615479 755.53120181 C117.70815285 755.53689888 134.41012893 755.53035874 151.11212339 755.51960108 C165.40108443 755.51068178 179.69001294 755.51220542 193.97897339 755.5214386 C210.60850437 755.53217931 227.23801605 755.53633322 243.86755002 755.53021407 C245.64665611 755.52957705 247.42576221 755.52894831 249.20486832 755.52832794 C250.07998397 755.52801939 250.95509963 755.52771084 251.85673394 755.52739294 C257.98255675 755.52567619 264.10836719 755.52855926 270.23418808 755.53328705 C277.72155991 755.53893898 285.2088899 755.53729062 292.69625704 755.52672556 C296.50659064 755.52152375 300.31685488 755.51931614 304.12718773 755.52602386 C335.1046185 755.77982484 335.1046185 755.77982484 365.52096558 750.57319641 C366.51418823 750.31264465 367.50741089 750.0520929 368.5307312 749.78364563 C384.41326157 745.47595612 400.04079415 739.15723322 414.09518433 730.52632141 C416.27096558 729.26069641 416.27096558 729.26069641 418.27096558 729.26069641 C418.27096558 728.60069641 418.27096558 727.94069641 418.27096558 727.26069641 C419.84812797 726.01036044 421.48597879 724.83627599 423.14596558 723.69819641 C432.35611664 717.12120392 439.65097609 710.28046035 446.26315308 701.05757141 C447.59686952 699.19970959 448.98035534 697.37654822 450.41159058 695.59272766 C452.74564923 692.66534737 454.51858749 689.55322686 456.27096558 686.26069641 C456.96899292 684.97872375 456.96899292 684.97872375 457.68112183 683.67085266 C462.83760396 673.84584194 466.31132261 663.68613985 468.77096558 652.88569641 C471.32203471 642.2228007 477.3111873 633.53622178 486.61862183 627.65132141 C497.25995741 622.07206447 507.33504434 620.74540347 518.83346558 623.82319641 C525.07544021 625.91850715 529.51503291 628.75793126 534.27096558 633.26069641 C534.96963745 633.86139954 535.66830933 634.46210266 536.38815308 635.08100891 C544.38989768 642.78080089 546.76902255 653.95761823 549.29049683 664.44819641 C552.38072906 676.46439826 558.6250499 686.88594358 565.39596558 697.13569641 C565.82804321 697.79094299 566.26012085 698.44618958 566.70529175 699.12129211 C568.70565167 702.1061467 570.69877721 704.76305152 573.27096558 707.26069641 C574.10953267 708.29815442 574.94256956 709.34009901 575.77096558 710.38569641 C580.00351264 715.36578288 585.13792096 719.25370432 590.27096558 723.26069641 C591.01088745 723.84335266 591.75080933 724.42600891 592.51315308 725.02632141 C599.32476022 730.27417438 606.68052842 734.03026811 614.37252808 737.81929016 C616.02547949 738.64131047 617.67171756 739.47809276 619.29440308 740.35835266 C649.34221027 756.56317444 685.40279107 755.56850399 718.46818745 755.51873446 C723.02907062 755.51413965 727.58993813 755.52127183 732.15081787 755.52703857 C740.02869969 755.53561296 747.90655908 755.53749411 755.78444481 755.5350914 C767.18718454 755.53197488 778.58987529 755.54369695 789.99260262 755.5596412 C808.51645685 755.58551624 827.04031111 755.6055825 845.56417847 755.61909485 C846.66950475 755.61990522 847.77483103 755.62071559 848.91365204 755.62155052 C864.62651964 755.63279093 880.33938369 755.63805872 896.05225477 755.64093764 C897.71524685 755.64124362 897.71524685 755.64124362 899.41183472 755.64155579 C900.51913058 755.64175572 901.62642644 755.64195566 902.76727673 755.64216165 C921.24153241 755.64589631 939.71573438 755.66498574 958.18996316 755.69665015 C969.5639805 755.71553158 980.93785994 755.72154679 992.31188861 755.71083297 C1000.09844072 755.70450758 1007.88489388 755.71257207 1015.67142429 755.73188709 C1020.15911699 755.74255037 1024.64656923 755.74675169 1029.13426018 755.7334156 C1033.24762336 755.72131447 1037.3605368 755.72779565 1041.47386125 755.74860759 C1042.95587707 755.75288931 1044.43793145 755.75052478 1045.91991999 755.74056642 C1056.062292 755.67739796 1065.54193779 756.48197596 1074.20846558 762.19819641 C1074.88909058 762.87882141 1075.56971558 763.55944641 1076.27096558 764.26069641 C1077.11659058 765.04444641 1077.96221558 765.82819641 1078.83346558 766.63569641 C1086.44615594 774.83397834 1088.85249897 782.72804761 1088.82858276 793.68525696 C1088.51296152 801.99026765 1085.87663048 809.20432339 1080.30221558 815.47554016 C1078.3709634 817.23223685 1076.4056041 818.76126409 1074.27096558 820.26069641 C1073.32221558 821.00319641 1072.37346558 821.74569641 1071.39596558 822.51069641 C1062.2396847 827.6382137 1052.86503123 827.68878026 1042.63160706 827.63491821 C1041.05401699 827.6376622 1039.47642875 827.64171718 1037.89884502 827.64696187 C1033.5837046 827.65750925 1029.26877253 827.64944521 1024.9536413 827.63821137 C1020.29146787 827.62934537 1015.62932101 827.63782012 1010.96714783 827.64407349 C1001.8387151 827.65355199 992.71036155 827.6469685 983.58193471 827.63481054 C972.93596654 827.62116252 962.29001705 827.6228311 951.64404235 827.62494387 C932.63189054 827.62813283 913.61977619 827.61647482 894.6076355 827.59687805 C876.19453793 827.57790391 857.78148433 827.57078293 839.36837769 827.57637024 C819.29516995 827.58244332 799.22198154 827.58222076 779.1487754 827.57088441 C777.00314796 827.56967721 774.85752052 827.56847122 772.71189308 827.56726646 C771.65637957 827.56666293 770.60086606 827.56605939 769.51336729 827.56543756 C762.10920213 827.56157396 754.7050442 827.56194609 747.30087852 827.56385231 C738.25729023 827.56598605 729.21374025 827.56066253 720.1701627 827.54623876 C715.5640436 827.53904861 710.95797995 827.53487097 706.35185623 827.53948212 C688.56304228 827.55514059 670.94935892 827.52727089 653.27096558 825.26069641 C652.08557536 825.12345311 650.90018515 824.98620981 649.67887402 824.84480762 C647.01652098 824.53626951 644.36311584 824.19166767 641.70846558 823.82319641 C640.79355347 823.69759338 639.87864136 823.57199036 638.93600464 823.44258118 C633.22492004 822.62591435 627.65462276 821.59280499 622.09909058 820.00679016 C619.59614949 819.34648388 617.1300627 818.84875912 614.58737183 818.37397766 C609.22781743 817.32026679 604.12696594 815.7623639 598.95846558 814.01069641 C598.0449231 813.7034967 597.13138062 813.396297 596.19015503 813.07978821 C588.95975459 810.5989501 582.1028942 807.7018151 575.27096558 804.26069641 C574.52975464 803.90233704 573.7885437 803.54397766 573.02487183 803.17475891 C568.00266535 800.72728987 563.13436164 798.00761456 558.27096558 795.26069641 C558.27096558 794.60069641 558.27096558 793.94069641 558.27096558 793.26069641 C557.58905151 793.20397766 556.90713745 793.14725891 556.20455933 793.08882141 C552.14903327 791.94398583 549.54986402 789.66275368 546.33346558 787.01069641 C545.73856323 786.53245422 545.14366089 786.05421204 544.5307312 785.56147766 C543.34800787 784.60754343 542.17032533 783.6473223 540.99801636 782.68061829 C539.83904806 781.72775433 538.67052033 780.78640899 537.49313354 779.85639954 C536.04929145 778.70200392 534.65495292 777.48621193 533.27096558 776.26069641 C533.27096558 775.60069641 533.27096558 774.94069641 533.27096558 774.26069641 C532.63159058 773.99257141 531.99221558 773.72444641 531.33346558 773.44819641 C529.27096558 772.26069641 529.27096558 772.26069641 528.27096558 769.26069641 C527.61096558 768.93069641 526.95096558 768.60069641 526.27096558 768.26069641 C524.27096558 767.26069641 524.27096558 767.26069641 523.27096558 764.26069641 C522.61096558 763.93069641 521.95096558 763.60069641 521.27096558 763.26069641 C519.27096558 762.26069641 519.27096558 762.26069641 518.27096558 759.26069641 C512.95064126 756.9788943 506.79739917 756.59399422 501.27096558 758.26069641 C495.65661276 760.76556152 491.92359142 764.48324252 488.04049683 769.15522766 C480.69229864 777.89844802 471.84057424 785.08032415 462.27096558 791.26069641 C461.46401245 791.8523761 460.65705933 792.44405579 459.82565308 793.05366516 C458.9413562 793.69948547 458.05705933 794.34530579 457.14596558 795.01069641 C456.31838745 795.62429016 455.49080933 796.23788391 454.63815308 796.87007141 C452.27096558 798.26069641 452.27096558 798.26069641 448.27096558 798.26069641 C448.27096558 798.92069641 448.27096558 799.58069641 448.27096558 800.26069641 C420.65239657 813.17005001 420.65239657 813.17005001 408.27096558 816.26069641 C407.06311401 816.57522766 405.85526245 816.88975891 404.61080933 817.21382141 C400.50648208 818.26875679 396.39824463 819.29911231 392.27096558 820.26069641 C391.31305418 820.48650802 390.35514278 820.71231962 389.36820376 820.94497401 C380.01666118 823.05585134 370.70847121 824.39401168 361.18389893 825.41485596 C360.3871021 825.50122049 359.59030527 825.58758502 358.76936309 825.67656665 C341.54570432 827.50582569 324.43774374 827.84522979 307.13184834 827.79825413 C302.82387713 827.79107867 298.51597249 827.80739345 294.20802307 827.82025146 C285.83058154 827.84158974 277.45327735 827.84184534 269.07581772 827.83362592 C262.25957098 827.82726232 255.44336357 827.82852022 248.62711716 827.83489799 C247.64796695 827.83579965 246.66881674 827.83670131 245.65999531 827.83763028 C243.66953488 827.83948188 241.67907446 827.84134445 239.68861406 827.84321784 C221.14660342 827.85968707 202.60466954 827.85116649 184.0626636 827.83423226 C167.15435421 827.81950414 150.24622203 827.8342268 133.3379354 827.86300243 C115.88359219 827.89248191 98.42933053 827.90334644 80.97496355 827.89382023 C78.9971068 827.89279787 77.01925005 827.89180325 75.04139328 827.89083672 C74.06875684 827.89036033 73.0961204 827.88988394 72.09401012 827.88939311 C65.29157031 827.88724249 58.48920907 827.89695887 51.68678665 827.91160774 C43.39007724 827.92922977 35.09359441 827.92887146 26.79689349 827.90625609 C22.577043 827.89521 18.35759027 827.89172949 14.13775826 827.91055679 C-13.27074019 828.02376064 -37.70286309 825.62555017 -61.72903442 811.26069641 C-61.72903442 810.60069641 -61.72903442 809.94069641 -61.72903442 809.26069641 C-62.77317505 808.91845032 -62.77317505 808.91845032 -63.83840942 808.56929016 C-67.34643508 806.98119746 -70.07991575 804.80710926 -72.97903442 802.32319641 C-73.5438855 801.84245667 -74.10873657 801.36171692 -74.69070435 800.8664093 C-80.01371812 796.21660243 -84.73285123 791.11556947 -88.72903442 785.26069641 C-88.72903442 784.60069641 -88.72903442 783.94069641 -88.72903442 783.26069641 C-89.38903442 783.26069641 -90.04903442 783.26069641 -90.72903442 783.26069641 C-94.50130192 778.03836509 -97.39503553 772.24791097 -99.72903442 766.26069641 C-100.13122192 765.25780579 -100.53340942 764.25491516 -100.94778442 763.22163391 C-106.29141437 749.70722098 -107.8877016 737.46198577 -107.85766888 722.97515678 C-107.85942191 721.88868685 -107.86117495 720.80221692 -107.86298111 719.68282366 C-107.86762204 716.05299643 -107.86518053 712.4232096 -107.86274719 708.79338074 C-107.86461612 706.16025414 -107.86687744 703.52713051 -107.86961251 700.89400494 C-107.87475257 695.17444724 -107.87618614 689.45489799 -107.8751564 683.73533821 C-107.87362882 675.22972106 -107.87779911 666.72411323 -107.88303103 658.21849789 C-107.89269414 642.1414925 -107.89551488 626.06449031 -107.89608809 609.98748235 C-107.89654792 597.56988743 -107.89860778 585.15229376 -107.90178871 572.73469925 C-107.90268628 569.15815294 -107.90357609 565.58160663 -107.90446359 562.00506032 C-107.90468464 561.11587647 -107.90490569 560.22669263 -107.90513343 559.31056382 C-107.91128634 534.30447449 -107.91523413 509.29838558 -107.91479015 484.29229546 C-107.91477457 483.34980264 -107.914759 482.40730982 -107.91474295 481.43625662 C-107.91465984 476.65949608 -107.9145608 471.88273555 -107.91445824 467.10597502 C-107.91443829 466.15732266 -107.91441835 465.20867031 -107.9143978 464.23127091 C-107.91435736 462.31286494 -107.91431556 460.39445897 -107.91427241 458.47605299 C-107.91365975 428.63375478 -107.9211649 398.79146793 -107.93484497 368.94917297 C-107.9502145 335.40774257 -107.95881067 301.86631963 -107.95788175 268.32488549 C-107.95780712 264.74645305 -107.95775841 261.16802061 -107.95772743 257.58958817 C-107.95771578 256.7085127 -107.95770412 255.82743724 -107.95769212 254.91966252 C-107.95766138 240.75761244 -107.96403983 226.59557225 -107.9726597 212.43352511 C-107.98114767 198.19337166 -107.98211717 183.95323265 -107.97555038 169.71307807 C-107.97186236 161.26046655 -107.97366466 152.80789893 -107.98349272 144.35529208 C-107.98951125 138.69970993 -107.98817652 133.04415943 -107.98102222 127.3885787 C-107.97715646 124.17247687 -107.97744017 120.95647592 -107.98447957 117.74037705 C-108.03246536 94.25353123 -107.55311188 71.7923396 -94.72903442 51.26069641 C-94.01940552 50.11214172 -94.01940552 50.11214172 -93.29544067 48.94038391 C-89.54882048 43.11230806 -85.44240677 37.34561837 -80.72903442 32.26069641 C-80.06903442 32.26069641 -79.40903442 32.26069641 -78.72903442 32.26069641 C-78.53438599 31.7180011 -78.33973755 31.17530579 -78.13919067 30.61616516 C-69.51955814 16.21827481 -47.56178322 7.40315536 -32.11965942 3.23335266 C-21.41835455 0.74402399 -10.964827 -0.03159078 0 0 Z " fill="#00F0FF" transform="translate(141.72903442382813,31.739303588867188)"/>
<path d="M0 0 C9.86448525 0.78289565 19.00781471 4.0425976 25.9375 11.3125 C25.9375 11.9725 25.9375 12.6325 25.9375 13.3125 C26.54207031 13.51230469 27.14664063 13.71210938 27.76953125 13.91796875 C30.88776662 15.92375258 31.3866724 18.17565213 32.625 21.625 C33.04136719 22.75550781 33.45773437 23.88601563 33.88671875 25.05078125 C35.52813613 30.14588723 36.05933276 34.60302015 36.04760742 39.96020508 C36.04815001 41.30304465 36.048737 42.64588421 36.04936218 43.98872375 C36.04793402 44.69555109 36.04650585 45.40237843 36.04503441 46.13062477 C36.04147886 49.91983529 36.06738045 53.70890404 36.08789062 57.49804688 C36.11207856 62.29887176 36.12805776 67.09926951 36.11254883 71.90014648 C36.10073935 75.79670245 36.11867716 79.69220586 36.15499306 83.58859825 C36.1634885 85.05741811 36.16171614 86.52634186 36.148489 87.99512672 C36.03626046 101.47963151 38.85568239 114.86882433 47.96484375 125.359375 C62.59391149 139.84360049 76.76434464 142.60114453 96.8359375 142.5859375 C98.24257305 142.59452845 99.64920056 142.60453788 101.05581665 142.61587524 C106.960351 142.66153268 112.86482567 142.6867196 118.76953125 142.69335938 C122.40813784 142.69843199 126.04622221 142.72295604 129.68465042 142.75868607 C131.70600683 142.77296129 133.72747898 142.76592236 135.74887085 142.75814819 C148.43256824 142.89149666 159.67490111 144.69257288 168.87890625 153.95703125 C175.87654791 161.96382047 178.51785845 170.29757785 178.1796875 180.96875 C177.24266745 190.03668597 174.07340321 197.49647258 167.9375 204.3125 C167.2775 204.3125 166.6175 204.3125 165.9375 204.3125 C165.9375 204.9725 165.9375 205.6325 165.9375 206.3125 C163.667884 207.46079977 161.39689222 208.60621978 159.125 209.75 C158.48240234 210.07548828 157.83980469 210.40097656 157.17773438 210.73632812 C151.79694951 213.44066042 148.13110947 214.43624438 142.11791992 214.43847656 C141.08297897 214.44127876 141.08297897 214.44127876 140.02713013 214.44413757 C138.52773092 214.44814063 137.02832563 214.45021633 135.52892113 214.45059967 C132.3224682 214.45402937 129.11621542 214.47542322 125.90983295 214.49583054 C119.94580447 214.53370895 113.98198487 214.56513284 108.01782227 214.56298828 C103.864326 214.56219352 99.71155786 214.58589424 95.55825233 214.6248703 C93.9873108 214.6352246 92.41628409 214.63693365 90.84532738 214.62921906 C77.14873702 214.56873997 65.29681265 216.53521121 54.609375 225.95703125 C52.9375 227.3125 52.9375 227.3125 50.9375 227.3125 C50.9375 227.9725 50.9375 228.6325 50.9375 229.3125 C50.2775 229.3125 49.6175 229.3125 48.9375 229.3125 C48.5971875 230.0859375 48.5971875 230.0859375 48.25 230.875 C46.9375 233.3125 46.9375 233.3125 44.625 236.1875 C37.16357077 246.62787719 36.21047909 258.29751778 36.30078125 270.7109375 C36.29271419 272.24119506 36.28218074 273.77144137 36.26933289 275.30166626 C36.24108506 279.28687193 36.24015764 283.27155408 36.24719238 287.25683594 C36.25458081 293.65328325 36.2229515 300.04956861 36.18474388 306.44588089 C36.17597653 308.66158542 36.18115559 310.87691794 36.18830872 313.09262085 C36.18126313 326.05414045 34.15860154 337.65229839 24.9375 347.3125 C18.18526689 353.90770443 9.41916551 357.4234894 -0.0625 357.3125 C-9.62436004 356.63363682 -19.91075878 353.26506083 -26.5 346 C-27.39511942 344.80032812 -28.24882362 343.5688368 -29.0625 342.3125 C-29.53429687 341.58675781 -30.00609375 340.86101562 -30.4921875 340.11328125 C-34.47770589 333.48200913 -35.16995544 327.41980144 -35.23608398 319.7097168 C-35.24957382 318.44117355 -35.26306366 317.17263031 -35.27696228 315.86564636 C-35.28202223 315.19728445 -35.28708218 314.52892254 -35.29229546 313.84030724 C-35.30888945 311.72400633 -35.33213272 309.60787011 -35.35719299 307.49165344 C-35.42746079 301.47897748 -35.48787868 295.46623542 -35.53930664 289.45336914 C-35.57134036 285.76230576 -35.61266968 282.07143703 -35.65950203 278.38053322 C-35.6753707 276.98491771 -35.68776074 275.58925764 -35.69640923 274.19357872 C-35.80406072 257.06889616 -38.39371258 241.98128742 -50.875 229.5 C-53.0625 227.3125 -53.0625 227.3125 -54.0625 224.3125 C-55.38961192 223.95520064 -56.72512906 223.62924575 -58.0625 223.3125 C-59.073125 222.714375 -60.08375 222.11625 -61.125 221.5 C-70.58129298 216.04788957 -79.32517668 214.74881792 -90.1317234 214.85721016 C-92.45139288 214.87945145 -94.7697835 214.87526696 -97.08952332 214.86473083 C-102.84842878 214.84326435 -108.60703632 214.8602661 -114.36590576 214.88623047 C-119.24603197 214.90782342 -124.12532367 214.90931853 -129.00543785 214.88331413 C-131.26451701 214.87903416 -133.52205317 214.9033824 -135.78096008 214.92884827 C-147.10168984 214.94056038 -159.23213355 213.24355453 -167.67578125 204.90625 C-175.43928016 195.98369351 -178.31546714 187.25817065 -178.0625 175.3125 C-176.39341593 165.22096094 -172.30278829 156.38957666 -164.28125 149.86328125 C-154.6188316 143.26986869 -143.79226199 142.87210279 -132.4453125 142.87109375 C-131.05726764 142.85928108 -129.6692353 142.8459076 -128.28121948 142.83106995 C-124.65314679 142.79518022 -121.02518491 142.77477957 -117.39697266 142.75952148 C-111.60023466 142.73454107 -105.80374159 142.69425985 -100.00722885 142.63762093 C-98.008541 142.62160055 -96.00976618 142.61790335 -94.01101685 142.61460876 C-76.94312207 142.47494114 -63.03061659 140.06063194 -50.3828125 127.83984375 C-34.1265545 110.13311155 -35.46622532 89.15584167 -35.44085693 66.66522217 C-35.43199864 60.78669772 -35.39614626 54.90841218 -35.3486824 49.03008652 C-35.33628328 47.00187399 -35.33742677 44.97359286 -35.33895874 42.94534302 C-35.27464141 31.40201127 -34.61970265 20.1664726 -26.25 11.41796875 C-21.63495316 7.3125 -21.63495316 7.3125 -19.0625 7.3125 C-19.0625 6.6525 -19.0625 5.9925 -19.0625 5.3125 C-12.62920316 2.57898454 -6.97112404 0.71133919 0 0 Z " fill="#00F0FF" transform="translate(649.0625,266.6875)"/>
<path d="M0 0 C1.27262552 -0.0055344 2.54525103 -0.01106879 3.85644096 -0.0167709 C7.34994897 -0.03138674 10.84299986 -0.02142835 14.33649242 -0.00703418 C18.11909962 0.00415161 21.90164663 -0.00789189 25.68424988 -0.01687622 C33.07871844 -0.03075889 40.47301541 -0.02328965 47.8674757 -0.00820064 C56.48989071 0.00871976 65.11226369 0.00544164 73.73469018 0.00170528 C89.12507681 -0.0041641 104.51538144 0.00996247 119.90574646 0.03465271 C134.81918917 0.05857493 149.73252238 0.06565415 164.64598083 0.05516052 C180.91103143 0.04373627 197.17603146 0.04183954 213.44108146 0.05625862 C215.17730359 0.05778436 216.91352572 0.05930472 218.64974785 0.06081963 C219.50386276 0.06157744 220.35797766 0.06233525 221.23797484 0.06311603 C227.23976884 0.06784689 233.24154017 0.06601598 239.24333382 0.06175423 C246.56264422 0.0568139 253.88185137 0.06287275 261.20113821 0.08264852 C264.93128052 0.09248058 268.66126602 0.09767014 272.39141655 0.08975601 C276.4438714 0.08133431 280.4959126 0.09635515 284.54833984 0.11352539 C286.29773474 0.10451032 286.29773474 0.10451032 288.08247095 0.09531313 C297.44276033 0.16718309 307.67139904 0.68190385 314.7106781 7.50120544 C315.3706781 7.78995544 316.0306781 8.07870544 316.7106781 8.37620544 C322.67182364 11.72934981 326.16306825 18.96086661 328.30052185 25.23167419 C330.30660684 36.33201116 329.47591419 46.57919188 323.0622406 55.89573669 C316.74375025 64.43535575 309.9265006 68.57940996 299.7106781 71.50120544 C295.21433446 72.1315754 290.81567316 72.17083952 286.2805481 72.12266541 C284.34900044 72.13224864 284.34900044 72.13224864 282.37843162 72.14202547 C278.84290149 72.15885795 275.30809008 72.14494916 271.77259862 72.12551069 C267.94507307 72.10997658 264.11762955 72.12351273 260.2901001 72.133255 C252.80870148 72.14772785 245.32757568 72.1356034 237.84620299 72.11414176 C229.12682811 72.09005222 220.40751468 72.09185088 211.68811391 72.09444767 C196.13006778 72.09813175 180.57214973 72.07736196 165.0141449 72.04319763 C149.92784898 72.01008163 134.84168737 71.99594487 119.75535583 72.00218201 C103.3072223 72.00894875 86.85914488 72.00647988 70.41101962 71.98682261 C69.54106224 71.98578312 68.67110486 71.98474363 67.77478513 71.98367265 C66.02771824 71.98158183 64.28065137 71.97947085 62.53358453 71.97733948 C56.45928158 71.97045135 50.38499596 71.96977328 44.31068993 71.97122192 C36.9096458 71.97266278 29.50871099 71.96294916 22.10770311 71.93927556 C18.33350523 71.92743173 14.55945955 71.92027974 10.78524399 71.92611313 C6.6919698 71.93225273 2.59912229 71.91509453 -1.49411011 71.89561462 C-3.27849132 71.90360651 -3.27849132 71.90360651 -5.09892064 71.91175985 C-11.56584625 71.8585977 -16.39820397 71.20672669 -22.2893219 68.50120544 C-23.06662659 68.17378357 -23.84393127 67.84636169 -24.64479065 67.50901794 C-33.43164281 63.27484185 -39.27437244 55.90493355 -42.6643219 46.81370544 C-44.60171827 36.82712621 -44.36399071 26.25423911 -39.03541565 17.42308044 C-29.22769494 3.41968629 -16.66044779 -0.13747357 0 0 Z " fill="#00F0FF" transform="translate(901.2893218994141,409.49879455566406)"/>
</svg>
